# 3ds Max Wavefront OBJ Exporter v0.97b - (c)2007 guruware
# File Created: 06.05.2017 04:06:04

mtllib sunMaterial.mtl

#
# object GeoSphere001
#

v  -0.2045 60.9619 17.0812
v  9.2125 58.2867 17.0812
v  2.7055 58.2867 8.1251
v  15.8167 51.0602 17.0812
v  12.1226 52.4666 8.1251
v  4.7463 51.0602 1.8441
v  -7.8231 58.2867 11.5460
v  -4.9130 52.4666 2.5899
v  -13.1660 51.0602 7.6642
v  -7.8231 58.2867 22.6164
v  -15.4416 52.4666 17.0812
v  -13.1660 51.0602 26.4983
v  2.7055 58.2867 26.0374
v  -4.9130 52.4666 31.5726
v  4.7463 51.0602 32.3183
v  12.1226 52.4666 26.0374
v  16.8311 43.0496 22.6164
v  16.8311 43.0496 11.5460
v  12.7569 35.0390 26.4983
v  15.0326 33.6326 17.0812
v  12.7569 35.0390 7.6642
v  10.3241 43.0496 2.5899
v  -0.2045 43.0496 -0.8311
v  4.5040 33.6326 2.5899
v  -5.1554 35.0390 1.8441
v  -10.7331 43.0496 2.5899
v  -17.2401 43.0496 11.5460
v  -12.5316 33.6326 8.1251
v  -16.2258 35.0390 17.0812
v  -17.2401 43.0496 22.6164
v  -10.7331 43.0496 31.5726
v  -12.5316 33.6326 26.0374
v  -5.1553 35.0390 32.3183
v  -0.2045 43.0496 34.9935
v  10.3241 43.0496 31.5726
v  4.5040 33.6326 31.5726
v  -0.2045 25.1373 17.0812
v  -3.1145 27.8125 8.1251
v  7.4140 27.8125 11.5460
v  -9.6216 27.8125 17.0812
v  -3.1145 27.8125 26.0374
v  7.4140 27.8125 22.6164
# 42 vertices

vn 0.0000 1.0000 -0.0000
vn 0.5257 0.8507 -0.0000
vn 0.1625 0.8507 -0.5000
vn 0.8944 0.4472 -0.0000
vn 0.6882 0.5257 -0.5000
vn 0.2764 0.4472 -0.8507
vn -0.4253 0.8507 -0.3090
vn -0.2629 0.5257 -0.8090
vn -0.7236 0.4472 -0.5257
vn -0.4253 0.8507 0.3090
vn -0.8507 0.5257 -0.0000
vn -0.7236 0.4472 0.5257
vn 0.1625 0.8507 0.5000
vn -0.2629 0.5257 0.8090
vn 0.2764 0.4472 0.8507
vn 0.6882 0.5257 0.5000
vn 0.9511 0.0000 0.3090
vn 0.9511 0.0000 -0.3090
vn 0.7236 -0.4472 0.5257
vn 0.8507 -0.5257 -0.0000
vn 0.7236 -0.4472 -0.5257
vn 0.5878 0.0000 -0.8090
vn 0.0000 0.0000 -1.0000
vn 0.2629 -0.5257 -0.8090
vn -0.2764 -0.4472 -0.8507
vn -0.5878 0.0000 -0.8090
vn -0.9511 0.0000 -0.3090
vn -0.6882 -0.5257 -0.5000
vn -0.8944 -0.4472 -0.0000
vn -0.9511 0.0000 0.3090
vn -0.5878 0.0000 0.8090
vn -0.6882 -0.5257 0.5000
vn -0.2764 -0.4472 0.8507
vn 0.0000 0.0000 1.0000
vn 0.5878 0.0000 0.8090
vn 0.2629 -0.5257 0.8090
vn 0.0000 -1.0000 -0.0000
vn -0.1625 -0.8507 -0.5000
vn 0.4253 -0.8507 -0.3090
vn -0.5257 -0.8507 -0.0000
vn -0.1625 -0.8507 0.5000
vn 0.4253 -0.8507 0.3090
# 42 vertex normals

vt 0.6000 1.0000 17.9123
vt 0.5000 0.8238 17.9123
vt 0.7000 0.8238 17.9123
vt 0.5000 0.6476 17.9123
vt 0.6000 0.6762 17.9123
vt 0.7000 0.6476 17.9123
vt 0.8000 1.0000 17.9123
vt 0.9000 0.8238 17.9123
vt 0.8000 0.6762 17.9123
vt 0.9000 0.6476 17.9123
vt 0.0000 1.0000 17.9123
vt -0.1000 0.8238 17.9123
vt 0.1000 0.8238 17.9123
vt -0.1000 0.6476 17.9123
vt 0.0000 0.6762 17.9123
vt 0.1000 0.6476 17.9123
vt 0.2000 1.0000 17.9123
vt 0.3000 0.8238 17.9123
vt 0.2000 0.6762 17.9123
vt 0.3000 0.6476 17.9123
vt 0.4000 1.0000 17.9123
vt 0.4000 0.6762 17.9123
vt 0.4500 0.5000 17.9123
vt 0.5500 0.5000 17.9123
vt 0.4000 0.3524 17.9123
vt 0.5000 0.3238 17.9123
vt 0.6000 0.3524 17.9123
vt 0.6500 0.5000 17.9123
vt 0.7500 0.5000 17.9123
vt 0.7000 0.3238 17.9123
vt 0.8000 0.3524 17.9123
vt 0.8500 0.5000 17.9123
vt 0.9500 0.5000 17.9123
vt 0.9000 0.3238 17.9123
vt -0.0500 0.5000 17.9123
vt -0.1000 0.3238 17.9123
vt 0.0000 0.3524 17.9123
vt 0.0500 0.5000 17.9123
vt 0.1500 0.5000 17.9123
vt 0.1000 0.3238 17.9123
vt 0.2000 0.3524 17.9123
vt 0.2500 0.5000 17.9123
vt 0.3500 0.5000 17.9123
vt 0.3000 0.3238 17.9123
vt 0.7000 0.0000 17.9123
vt 0.8000 0.1762 17.9123
vt 0.6000 0.1762 17.9123
vt -0.1000 0.0000 17.9123
vt 0.0000 0.1762 17.9123
vt -0.2000 0.1762 17.9123
vt 0.1000 0.0000 17.9123
vt 0.2000 0.1762 17.9123
vt 0.3000 0.0000 17.9123
vt 0.4000 0.1762 17.9123
vt 0.5000 0.0000 17.9123
# 55 texture coords

g GeoSphere001
usemtl _Sol01___Default
s 1
f 1/1/1 2/2/2 3/3/3 
f 2/2/2 4/4/4 5/5/5 
f 2/2/2 5/5/5 3/3/3 
f 3/3/3 5/5/5 6/6/6 
f 1/7/1 3/3/3 7/8/7 
f 3/3/3 6/6/6 8/9/8 
f 3/3/3 8/9/8 7/8/7 
f 7/8/7 8/9/8 9/10/9 
f 1/11/1 7/12/7 10/13/10 
f 7/12/7 9/14/9 11/15/11 
f 7/12/7 11/15/11 10/13/10 
f 10/13/10 11/15/11 12/16/12 
f 1/17/1 10/13/10 13/18/13 
f 10/13/10 12/16/12 14/19/14 
f 10/13/10 14/19/14 13/18/13 
f 13/18/13 14/19/14 15/20/15 
f 1/21/1 13/18/13 2/2/2 
f 13/18/13 15/20/15 16/22/16 
f 13/18/13 16/22/16 2/2/2 
f 2/2/2 16/22/16 4/4/4 
f 4/4/4 17/23/17 18/24/18 
f 17/23/17 19/25/19 20/26/20 
f 17/23/17 20/26/20 18/24/18 
f 18/24/18 20/26/20 21/27/21 
f 6/6/6 22/28/22 23/29/23 
f 22/28/22 21/27/21 24/30/24 
f 22/28/22 24/30/24 23/29/23 
f 23/29/23 24/30/24 25/31/25 
f 9/10/9 26/32/26 27/33/27 
f 26/32/26 25/31/25 28/34/28 
f 26/32/26 28/34/28 27/33/27 
f 27/35/27 28/36/28 29/37/29 
f 12/16/12 30/38/30 31/39/31 
f 30/38/30 29/37/29 32/40/32 
f 30/38/30 32/40/32 31/39/31 
f 31/39/31 32/40/32 33/41/33 
f 15/20/15 34/42/34 35/43/35 
f 34/42/34 33/41/33 36/44/36 
f 34/42/34 36/44/36 35/43/35 
f 35/43/35 36/44/36 19/25/19 
f 21/27/21 22/28/22 18/24/18 
f 22/28/22 6/6/6 5/5/5 
f 22/28/22 5/5/5 18/24/18 
f 18/24/18 5/5/5 4/4/4 
f 25/31/25 26/32/26 23/29/23 
f 26/32/26 9/10/9 8/9/8 
f 26/32/26 8/9/8 23/29/23 
f 23/29/23 8/9/8 6/6/6 
f 29/37/29 30/38/30 27/35/27 
f 30/38/30 12/16/12 11/15/11 
f 30/38/30 11/15/11 27/35/27 
f 27/35/27 11/15/11 9/14/9 
f 33/41/33 34/42/34 31/39/31 
f 34/42/34 15/20/15 14/19/14 
f 34/42/34 14/19/14 31/39/31 
f 31/39/31 14/19/14 12/16/12 
f 19/25/19 17/23/17 35/43/35 
f 17/23/17 4/4/4 16/22/16 
f 17/23/17 16/22/16 35/43/35 
f 35/43/35 16/22/16 15/20/15 
f 37/45/37 38/46/38 39/47/39 
f 38/46/38 25/31/25 24/30/24 
f 38/46/38 24/30/24 39/47/39 
f 39/47/39 24/30/24 21/27/21 
f 37/48/37 40/49/40 38/50/38 
f 40/49/40 29/37/29 28/36/28 
f 40/49/40 28/36/28 38/50/38 
f 38/46/38 28/34/28 25/31/25 
f 37/51/37 41/52/41 40/49/40 
f 41/52/41 33/41/33 32/40/32 
f 41/52/41 32/40/32 40/49/40 
f 40/49/40 32/40/32 29/37/29 
f 37/53/37 42/54/42 41/52/41 
f 42/54/42 19/25/19 36/44/36 
f 42/54/42 36/44/36 41/52/41 
f 41/52/41 36/44/36 33/41/33 
f 37/55/37 39/47/39 42/54/42 
f 39/47/39 21/27/21 20/26/20 
f 39/47/39 20/26/20 42/54/42 
f 42/54/42 20/26/20 19/25/19 
# 0 polygons - 80 triangles

#
# object GeoSphere002
#

v  -0.0290 61.2537 17.0555
v  19.0556 63.6103 17.0555
v  -0.0290 58.8148 13.5346
v  20.5318 62.1341 17.0555
v  13.4912 58.6613 13.1986
v  -0.0290 52.1516 10.9572
v  18.1751 43.0496 17.0555
v  15.7362 43.0496 13.5346
v  12.3132 43.0496 10.9571
v  -0.0290 43.0496 10.0137
v  -19.1936 63.5302 17.0555
v  -13.5491 58.6613 13.1986
v  -20.5096 62.2142 17.0555
v  -12.3711 43.0496 10.9571
v  -15.7942 43.0496 13.5346
v  -18.2330 43.0496 17.0555
v  -0.0290 58.8148 20.5764
v  -13.5491 58.6613 20.9125
v  -0.0290 52.1516 23.1539
v  -15.7942 43.0496 20.5764
v  -12.3711 43.0496 23.1539
v  -0.0290 43.0496 24.0973
v  13.4912 58.6613 20.9125
v  12.3132 43.0496 23.1539
v  15.7362 43.0496 20.5764
v  -0.0290 24.8455 17.0555
v  -0.0290 27.2844 13.5346
v  19.0687 22.5020 17.0555
v  -0.0290 33.9476 10.9572
v  13.4912 27.4379 13.1986
v  20.5186 23.9519 17.0555
v  -19.2227 22.5981 17.0555
v  -20.4805 23.8559 17.0555
v  -13.5491 27.4379 13.1986
v  -0.0290 27.2844 20.5764
v  -0.0290 33.9476 23.1539
v  -13.5491 27.4379 20.9125
v  13.4912 27.4379 20.9125
# 38 vertices

vn -0.1203 0.9739 -0.1925
vn 0.6196 0.6196 -0.4818
vn -0.0187 0.9414 -0.3369
vn -0.0425 0.8041 -0.5930
vn 0.9739 -0.1203 -0.1925
vn 0.8738 0.0896 -0.4780
vn 0.9298 0.1071 -0.3523
vn 0.3025 0.4102 -0.8604
vn 0.2442 0.3312 -0.9114
vn 0.1158 0.9744 -0.1926
vn 0.0425 0.8041 -0.5930
vn 0.0182 0.9431 -0.3320
vn -0.6196 0.6196 -0.4818
vn -0.2442 0.3312 -0.9114
vn -0.3025 0.4102 -0.8604
vn -0.9298 0.1071 -0.3523
vn -0.8756 0.0901 -0.4745
vn -0.9744 -0.1158 -0.1926
vn 0.1158 0.9744 0.1926
vn -0.6196 0.6196 0.4818
vn 0.0182 0.9431 0.3320
vn 0.0425 0.8041 0.5930
vn -0.9744 -0.1158 0.1926
vn -0.8756 0.0901 0.4745
vn -0.9298 0.1071 0.3523
vn -0.3025 0.4102 0.8604
vn -0.2442 0.3312 0.9114
vn -0.1203 0.9739 0.1925
vn -0.0425 0.8041 0.5930
vn -0.0187 0.9414 0.3369
vn 0.6196 0.6196 0.4818
vn 0.2442 0.3312 0.9114
vn 0.3025 0.4102 0.8604
vn 0.9298 0.1071 0.3523
vn 0.8738 0.0896 0.4780
vn 0.9739 -0.1203 0.1925
vn -0.1195 -0.9740 -0.1925
vn -0.0425 -0.8041 -0.5930
vn -0.0186 -0.9416 -0.3361
vn 0.6196 -0.6196 -0.4818
vn 0.2442 -0.3312 -0.9114
vn 0.3025 -0.4102 -0.8604
vn 0.9298 -0.1071 -0.3523
vn 0.8741 -0.0897 -0.4774
vn 0.9740 0.1195 -0.1925
vn 0.1141 -0.9746 -0.1926
vn -0.6196 -0.6196 -0.4818
vn 0.0181 -0.9437 -0.3302
vn 0.0425 -0.8041 -0.5930
vn -0.9746 0.1141 -0.1926
vn -0.8763 -0.0903 -0.4732
vn -0.9298 -0.1071 -0.3523
vn -0.3025 -0.4102 -0.8604
vn -0.2442 -0.3312 -0.9114
vn 0.1141 -0.9746 0.1926
vn 0.0425 -0.8041 0.5930
vn 0.0181 -0.9437 0.3302
vn -0.6196 -0.6196 0.4818
vn -0.2442 -0.3312 0.9114
vn -0.3025 -0.4102 0.8604
vn -0.9298 -0.1071 0.3523
vn -0.8763 -0.0903 0.4732
vn -0.9746 0.1141 0.1926
vn -0.1195 -0.9740 0.1925
vn 0.6196 -0.6196 0.4818
vn -0.0186 -0.9416 0.3361
vn -0.0425 -0.8041 0.5930
vn 0.9740 0.1195 0.1925
vn 0.8741 -0.0897 0.4774
vn 0.9298 -0.1071 0.3523
vn 0.3025 -0.4102 0.8604
vn 0.2442 -0.3312 0.9114
# 72 vertex normals

vt 0.6250 1.0000 17.9123
vt 0.5000 0.8333 17.9123
vt 0.7500 0.8333 17.9123
vt 0.5000 0.6667 17.9123
vt 0.6250 0.7180 17.9123
vt 0.7500 0.6667 17.9123
vt 0.5000 0.5000 17.9123
vt 0.5833 0.5000 17.9123
vt 0.6667 0.5000 17.9123
vt 0.7500 0.5000 17.9123
vt 0.8750 1.0000 17.9123
vt 1.0000 0.8333 17.9123
vt 0.8750 0.7180 17.9123
vt 1.0000 0.6667 17.9123
vt 0.8333 0.5000 17.9123
vt 0.9167 0.5000 17.9123
vt 1.0000 0.5000 17.9123
vt 0.1250 1.0000 17.9123
vt 0.0000 0.8333 17.9123
vt 0.2500 0.8333 17.9123
vt 0.0000 0.6667 17.9123
vt 0.1250 0.7180 17.9123
vt 0.2500 0.6667 17.9123
vt 0.0000 0.5000 17.9123
vt 0.0833 0.5000 17.9123
vt 0.1667 0.5000 17.9123
vt 0.2500 0.5000 17.9123
vt 0.3750 1.0000 17.9123
vt 0.3750 0.7180 17.9123
vt 0.3333 0.5000 17.9123
vt 0.4167 0.5000 17.9123
vt 0.6250 0.0000 17.9123
vt 0.7500 0.1667 17.9123
vt 0.5000 0.1667 17.9123
vt 0.7500 0.3333 17.9123
vt 0.6250 0.2820 17.9123
vt 0.5000 0.3333 17.9123
vt 0.8750 0.0000 17.9123
vt 1.0000 0.1667 17.9123
vt 1.0000 0.3333 17.9123
vt 0.8750 0.2820 17.9123
vt 0.1250 0.0000 17.9123
vt 0.2500 0.1667 17.9123
vt 0.0000 0.1667 17.9123
vt 0.2500 0.3333 17.9123
vt 0.1250 0.2820 17.9123
vt 0.0000 0.3333 17.9123
vt 0.3750 0.0000 17.9123
vt 0.3750 0.2820 17.9123
# 49 texture coords

g GeoSphere002
usemtl _Sol02___Default
s off
f 43/56/43 44/57/43 45/58/43 
f 44/57/44 46/59/44 47/60/44 
f 44/57/45 47/60/45 45/58/45 
f 45/58/46 47/60/46 48/61/46 
f 46/59/47 49/62/47 50/63/47 
f 46/59/48 50/63/48 47/60/48 
f 47/60/49 50/63/49 51/64/49 
f 47/60/50 51/64/50 48/61/50 
f 48/61/51 51/64/51 52/65/51 
f 43/66/52 45/58/52 53/67/52 
f 45/58/53 48/61/53 54/68/53 
f 45/58/54 54/68/54 53/67/54 
f 53/67/55 54/68/55 55/69/55 
f 48/61/56 52/65/56 56/70/56 
f 48/61/57 56/70/57 54/68/57 
f 54/68/58 56/70/58 57/71/58 
f 54/68/59 57/71/59 55/69/59 
f 55/69/60 57/71/60 58/72/60 
f 43/73/61 53/74/61 59/75/61 
f 53/74/62 55/76/62 60/77/62 
f 53/74/63 60/77/63 59/75/63 
f 59/75/64 60/77/64 61/78/64 
f 55/76/65 58/79/65 62/80/65 
f 55/76/66 62/80/66 60/77/66 
f 60/77/67 62/80/67 63/81/67 
f 60/77/68 63/81/68 61/78/68 
f 61/78/69 63/81/69 64/82/69 
f 43/83/70 59/75/70 44/57/70 
f 59/75/71 61/78/71 65/84/71 
f 59/75/72 65/84/72 44/57/72 
f 44/57/73 65/84/73 46/59/73 
f 61/78/74 64/82/74 66/85/74 
f 61/78/75 66/85/75 65/84/75 
f 65/84/76 66/85/76 67/86/76 
f 65/84/77 67/86/77 46/59/77 
f 46/59/78 67/86/78 49/62/78 
f 68/87/79 69/88/79 70/89/79 
f 69/88/80 71/90/80 72/91/80 
f 69/88/81 72/91/81 70/89/81 
f 70/89/82 72/91/82 73/92/82 
f 71/90/83 52/65/83 51/64/83 
f 71/90/84 51/64/84 72/91/84 
f 72/91/85 51/64/85 50/63/85 
f 72/91/86 50/63/86 73/92/86 
f 73/92/87 50/63/87 49/62/87 
f 68/93/88 74/94/88 69/88/88 
f 74/94/89 75/95/89 76/96/89 
f 74/94/90 76/96/90 69/88/90 
f 69/88/91 76/96/91 71/90/91 
f 75/95/92 58/72/92 57/71/92 
f 75/95/93 57/71/93 76/96/93 
f 76/96/94 57/71/94 56/70/94 
f 76/96/95 56/70/95 71/90/95 
f 71/90/96 56/70/96 52/65/96 
f 68/97/97 77/98/97 74/99/97 
f 77/98/98 78/100/98 79/101/98 
f 77/98/99 79/101/99 74/99/99 
f 74/99/100 79/101/100 75/102/100 
f 78/100/101 64/82/101 63/81/101 
f 78/100/102 63/81/102 79/101/102 
f 79/101/103 63/81/103 62/80/103 
f 79/101/104 62/80/104 75/102/104 
f 75/102/105 62/80/105 58/79/105 
f 68/103/106 70/89/106 77/98/106 
f 70/89/107 73/92/107 80/104/107 
f 70/89/108 80/104/108 77/98/108 
f 77/98/109 80/104/109 78/100/109 
f 73/92/110 49/62/110 67/86/110 
f 73/92/111 67/86/111 80/104/111 
f 80/104/112 67/86/112 66/85/112 
f 80/104/113 66/85/113 78/100/113 
f 78/100/114 66/85/114 64/82/114 
# 0 polygons - 72 triangles

#
# object GeoSphere003
#

v  -12.9012 55.9218 17.0555
v  -1.0728 71.0830 17.0555
v  -11.1766 54.1973 13.5346
v  1.0149 71.0830 17.0555
v  -1.5079 63.6489 13.1986
v  -6.4651 49.4857 10.9572
v  12.8433 55.9218 17.0555
v  11.1187 54.1973 13.5346
v  8.6982 51.7768 10.9571
v  -0.0290 43.0496 10.0137
v  -28.0624 43.9802 17.0555
v  -20.6283 44.5286 13.1986
v  -28.0624 42.1190 17.0555
v  -8.7562 34.3224 10.9571
v  -11.1766 31.9019 13.5346
v  -12.9012 30.1774 17.0555
v  -11.1766 54.1973 20.5764
v  -20.6283 44.5286 20.9125
v  -6.4651 49.4857 23.1539
v  -11.1766 31.9019 20.5764
v  -8.7562 34.3224 23.1539
v  -0.0290 43.0496 24.0973
v  -1.5079 63.6489 20.9125
v  8.6982 51.7768 23.1539
v  11.1187 54.1973 20.5764
v  12.8433 30.1774 17.0555
v  11.1187 31.9019 13.5346
v  28.0045 42.0244 17.0555
v  6.4072 36.6135 10.9572
v  20.5703 41.5706 13.1986
v  28.0045 44.0748 17.0555
v  0.8604 15.0162 17.0555
v  -0.9184 15.0162 17.0555
v  1.4500 22.4503 13.1986
v  11.1187 31.9019 20.5764
v  6.4072 36.6135 23.1539
v  1.4500 22.4503 20.9125
v  20.5703 41.5706 20.9125
# 38 vertices

vn -0.7737 0.6036 -0.1925
vn 0.0000 0.8763 -0.4818
vn -0.6788 0.6524 -0.3369
vn -0.5987 0.5385 -0.5930
vn 0.7737 0.6036 -0.1925
vn 0.5545 0.6812 -0.4780
vn 0.5817 0.7332 -0.3523
vn -0.0761 0.5039 -0.8604
vn -0.0615 0.4068 -0.9114
vn -0.6072 0.7709 -0.1926
vn -0.5385 0.5987 -0.5930
vn -0.6540 0.6798 -0.3320
vn -0.8763 0.0000 -0.4818
vn -0.4068 0.0615 -0.9114
vn -0.5039 0.0761 -0.8604
vn -0.7332 -0.5817 -0.3523
vn -0.6829 -0.5554 -0.4745
vn -0.6072 -0.7709 -0.1926
vn -0.6072 0.7709 0.1926
vn -0.8763 0.0000 0.4818
vn -0.6540 0.6798 0.3320
vn -0.5385 0.5987 0.5930
vn -0.6072 -0.7709 0.1926
vn -0.6829 -0.5554 0.4745
vn -0.7332 -0.5817 0.3523
vn -0.5039 0.0761 0.8604
vn -0.4068 0.0615 0.9114
vn -0.7737 0.6036 0.1925
vn -0.5987 0.5385 0.5930
vn -0.6788 0.6524 0.3369
vn 0.0000 0.8763 0.4818
vn -0.0615 0.4068 0.9114
vn -0.0761 0.5039 0.8604
vn 0.5817 0.7332 0.3523
vn 0.5545 0.6812 0.4780
vn 0.7737 0.6036 0.1925
vn 0.6042 -0.7732 -0.1925
vn 0.5385 -0.5987 -0.5930
vn 0.6527 -0.6790 -0.3361
vn 0.8763 0.0000 -0.4818
vn 0.4068 -0.0615 -0.9114
vn 0.5039 -0.0761 -0.8604
vn 0.7332 0.5817 -0.3523
vn 0.6815 0.5547 -0.4774
vn 0.6042 0.7732 -0.1925
vn 0.7699 -0.6085 -0.1926
vn 0.0000 -0.8763 -0.4818
vn 0.6801 -0.6545 -0.3302
vn 0.5987 -0.5385 -0.5930
vn -0.7699 -0.6085 -0.1926
vn -0.5558 -0.6835 -0.4732
vn -0.5817 -0.7332 -0.3523
vn 0.0761 -0.5039 -0.8604
vn 0.0615 -0.4068 -0.9114
vn 0.7699 -0.6085 0.1926
vn 0.5987 -0.5385 0.5930
vn 0.6801 -0.6545 0.3302
vn 0.0000 -0.8763 0.4818
vn 0.0615 -0.4068 0.9114
vn 0.0761 -0.5039 0.8604
vn -0.5817 -0.7332 0.3523
vn -0.5558 -0.6835 0.4732
vn -0.7699 -0.6085 0.1926
vn 0.6042 -0.7732 0.1925
vn 0.8763 0.0000 0.4818
vn 0.6527 -0.6790 0.3361
vn 0.5385 -0.5987 0.5930
vn 0.6042 0.7732 0.1925
vn 0.6815 0.5547 0.4774
vn 0.7332 0.5817 0.3523
vn 0.5039 -0.0761 0.8604
vn 0.4068 -0.0615 0.9114
# 72 vertex normals

vt 0.6250 1.0000 17.9123
vt 0.5000 0.8333 17.9123
vt 0.7500 0.8333 17.9123
vt 0.5000 0.6667 17.9123
vt 0.6250 0.7180 17.9123
vt 0.7500 0.6667 17.9123
vt 0.5000 0.5000 17.9123
vt 0.5833 0.5000 17.9123
vt 0.6667 0.5000 17.9123
vt 0.7500 0.5000 17.9123
vt 0.8750 1.0000 17.9123
vt 1.0000 0.8333 17.9123
vt 0.8750 0.7180 17.9123
vt 1.0000 0.6667 17.9123
vt 0.8333 0.5000 17.9123
vt 0.9167 0.5000 17.9123
vt 1.0000 0.5000 17.9123
vt 0.1250 1.0000 17.9123
vt 0.0000 0.8333 17.9123
vt 0.2500 0.8333 17.9123
vt 0.0000 0.6667 17.9123
vt 0.1250 0.7180 17.9123
vt 0.2500 0.6667 17.9123
vt 0.0000 0.5000 17.9123
vt 0.0833 0.5000 17.9123
vt 0.1667 0.5000 17.9123
vt 0.2500 0.5000 17.9123
vt 0.3750 1.0000 17.9123
vt 0.3750 0.7180 17.9123
vt 0.3333 0.5000 17.9123
vt 0.4167 0.5000 17.9123
vt 0.6250 0.0000 17.9123
vt 0.7500 0.1667 17.9123
vt 0.5000 0.1667 17.9123
vt 0.7500 0.3333 17.9123
vt 0.6250 0.2820 17.9123
vt 0.5000 0.3333 17.9123
vt 0.8750 0.0000 17.9123
vt 1.0000 0.1667 17.9123
vt 1.0000 0.3333 17.9123
vt 0.8750 0.2820 17.9123
vt 0.1250 0.0000 17.9123
vt 0.2500 0.1667 17.9123
vt 0.0000 0.1667 17.9123
vt 0.2500 0.3333 17.9123
vt 0.1250 0.2820 17.9123
vt 0.0000 0.3333 17.9123
vt 0.3750 0.0000 17.9123
vt 0.3750 0.2820 17.9123
# 49 texture coords

g GeoSphere003
usemtl _Sol02___Default
s off
f 81/105/115 82/106/115 83/107/115 
f 82/106/116 84/108/116 85/109/116 
f 82/106/117 85/109/117 83/107/117 
f 83/107/118 85/109/118 86/110/118 
f 84/108/119 87/111/119 88/112/119 
f 84/108/120 88/112/120 85/109/120 
f 85/109/121 88/112/121 89/113/121 
f 85/109/122 89/113/122 86/110/122 
f 86/110/123 89/113/123 90/114/123 
f 81/115/124 83/107/124 91/116/124 
f 83/107/125 86/110/125 92/117/125 
f 83/107/126 92/117/126 91/116/126 
f 91/116/127 92/117/127 93/118/127 
f 86/110/128 90/114/128 94/119/128 
f 86/110/129 94/119/129 92/117/129 
f 92/117/130 94/119/130 95/120/130 
f 92/117/131 95/120/131 93/118/131 
f 93/118/132 95/120/132 96/121/132 
f 81/122/133 91/123/133 97/124/133 
f 91/123/134 93/125/134 98/126/134 
f 91/123/135 98/126/135 97/124/135 
f 97/124/136 98/126/136 99/127/136 
f 93/125/137 96/128/137 100/129/137 
f 93/125/138 100/129/138 98/126/138 
f 98/126/139 100/129/139 101/130/139 
f 98/126/140 101/130/140 99/127/140 
f 99/127/141 101/130/141 102/131/141 
f 81/132/142 97/124/142 82/106/142 
f 97/124/143 99/127/143 103/133/143 
f 97/124/144 103/133/144 82/106/144 
f 82/106/145 103/133/145 84/108/145 
f 99/127/146 102/131/146 104/134/146 
f 99/127/147 104/134/147 103/133/147 
f 103/133/148 104/134/148 105/135/148 
f 103/133/149 105/135/149 84/108/149 
f 84/108/150 105/135/150 87/111/150 
f 106/136/151 107/137/151 108/138/151 
f 107/137/152 109/139/152 110/140/152 
f 107/137/153 110/140/153 108/138/153 
f 108/138/154 110/140/154 111/141/154 
f 109/139/155 90/114/155 89/113/155 
f 109/139/156 89/113/156 110/140/156 
f 110/140/157 89/113/157 88/112/157 
f 110/140/158 88/112/158 111/141/158 
f 111/141/159 88/112/159 87/111/159 
f 106/142/160 112/143/160 107/137/160 
f 112/143/161 113/144/161 114/145/161 
f 112/143/162 114/145/162 107/137/162 
f 107/137/163 114/145/163 109/139/163 
f 113/144/164 96/121/164 95/120/164 
f 113/144/165 95/120/165 114/145/165 
f 114/145/166 95/120/166 94/119/166 
f 114/145/167 94/119/167 109/139/167 
f 109/139/168 94/119/168 90/114/168 
f 106/146/169 115/147/169 112/148/169 
f 115/147/170 116/149/170 117/150/170 
f 115/147/171 117/150/171 112/148/171 
f 112/148/172 117/150/172 113/151/172 
f 116/149/173 102/131/173 101/130/173 
f 116/149/174 101/130/174 117/150/174 
f 117/150/175 101/130/175 100/129/175 
f 117/150/176 100/129/176 113/151/176 
f 113/151/177 100/129/177 96/128/177 
f 106/152/178 108/138/178 115/147/178 
f 108/138/179 111/141/179 118/153/179 
f 108/138/180 118/153/180 115/147/180 
f 115/147/181 118/153/181 116/149/181 
f 111/141/182 87/111/182 105/135/182 
f 111/141/183 105/135/183 118/153/183 
f 118/153/184 105/135/184 104/134/184 
f 118/153/185 104/134/185 116/149/185 
f 116/149/186 104/134/186 102/131/186 
# 0 polygons - 72 triangles

